# xmcd
#
# Track frame offsets:
#   150
#   14381
#   31322
#   45820
#   60334
#   75977
#   91903
#   110241
#   125298
#   142369
#   156969
#   169041
#   186073
#   200530
#   219276
#   235239
#   251685
#   267698
#   291119
#   305016
#
# Disc length: 4298 seconds
#
# Revision: 0
# Processed by: cddbd v1.5.1PL0 Copyright (c) Steve Scherf et al.
# Submitted via: uFREEDB ActiveX Control 1.5
#
DISCID=1910c814
DTITLE=Os Serranos - As 20 Mais
DYEAR=1900
DGENRE=Country
TTITLE0=Faixa 01
TTITLE1=Faixa 02
TTITLE2=Faixa 03
TTITLE3=Faixa 04
TTITLE4=Faixa 05
TTITLE5=Faixa 06
TTITLE6=Faixa 07
TTITLE7=Faixa 08
TTITLE8=Faixa 09
TTITLE9=Faixa 10
TTITLE10=Faixa 11
TTITLE11=Faixa 12
TTITLE12=Faixa 13
TTITLE13=Faixa 14
TTITLE14=Faixa 15
TTITLE15=Faixa 16
TTITLE16=Faixa 17
TTITLE17=Faixa 18
TTITLE18=Faixa 19
TTITLE19=Faixa 20
EXTD=
EXTT0=
EXTT1=
EXTT2=
EXTT3=
EXTT4=
EXTT5=
EXTT6=
EXTT7=
EXTT8=
EXTT9=
EXTT10=
EXTT11=
EXTT12=
EXTT13=
EXTT14=
EXTT15=
EXTT16=
EXTT17=
EXTT18=
EXTT19=
PLAYORDER=
